<svg id="Capa_1" enable-background="new 0 0 512 512" height="512" viewBox="0 0 512 512" width="512" xmlns="http://www.w3.org/2000/svg"><path d="m354.954 209.642c14.272 6.781 30.222 10.582 47.045 10.582 60.654 0 110.001-49.346 110.001-110s-49.347-110-110.001-110c-31.297 0-59.583 13.139-79.633 34.19-21.45-21.811-50.929-34.414-82.013-34.414h-16.901c-63.411 0-115 51.589-115 115v85.1c0 33.64 14.52 63.952 37.621 85h-11.073c-74.439 0-135 60.561-135 135v76.9c0 8.284 6.716 15 15 15h433.804c8.284 0 15-6.716 15-15v-76.9c0-74.439-60.561-135-135-135h-11.072c20.894-19.038 34.762-45.655 37.222-75.458zm47.045-179.417c44.112 0 80.001 35.888 80.001 80s-35.889 80-80.001 80-80.001-35.888-80.001-80 35.889-80 80.001-80zm-73.195 284.875c57.897 0 105 47.103 105 105v61.9h-403.804v-61.9c0-57.897 47.103-105 105-105zm-105.353-30c-46.869 0-85-38.131-85-85v-85.1c0-46.869 38.131-85 85-85h16.901c24.74 0 48.11 10.806 64.175 29.286-7.996 15.239-12.529 32.568-12.529 50.938 0 30.879 12.795 58.821 33.354 78.819v11.057c0 46.869-38.131 85-85 85z"/><path d="m389.186 101.549v43.451c0 8.284 6.716 15 15 15s15-6.716 15-15v-69.775c0-5.459-2.965-10.486-7.742-13.127-4.777-2.64-10.61-2.479-15.234.424l-18.813 11.813c-7.016 4.405-9.132 13.664-4.727 20.68 3.572 5.692 10.34 8.16 16.516 6.534z"/></svg>