<svg height="512" viewBox="0 0 64 64" width="512" xmlns="http://www.w3.org/2000/svg" xmlns:xlink="http://www.w3.org/1999/xlink"><linearGradient id="New_Gradient_Swatch_2" gradientUnits="userSpaceOnUse" x1="32.154" x2="32.154" y1="-1.976" y2="65.005"><stop offset="0" stop-color="#fc5c7d"/><stop offset=".129" stop-color="#f35e85"/><stop offset=".343" stop-color="#d9659b"/><stop offset=".616" stop-color="#b070bf"/><stop offset=".934" stop-color="#777ff0"/><stop offset="1" stop-color="#6a82fb"/></linearGradient><linearGradient id="New_Gradient_Swatch_2-2" x1="35.5" x2="35.5" xlink:href="#New_Gradient_Swatch_2" y1="-1.976" y2="65.005"/><linearGradient id="New_Gradient_Swatch_2-3" x1="14" x2="14" xlink:href="#New_Gradient_Swatch_2" y1="-1.976" y2="65.005"/><linearGradient id="New_Gradient_Swatch_2-4" x1="18" x2="18" xlink:href="#New_Gradient_Swatch_2" y1="-1.976" y2="65.005"/><linearGradient id="New_Gradient_Swatch_2-5" x1="22" x2="22" xlink:href="#New_Gradient_Swatch_2" y1="-1.976" y2="65.005"/><linearGradient id="New_Gradient_Swatch_2-6" x1="19" x2="19" xlink:href="#New_Gradient_Swatch_2" y1="-1.976" y2="65.005"/><linearGradient id="New_Gradient_Swatch_2-7" x1="38.5" x2="38.5" xlink:href="#New_Gradient_Swatch_2" y1="-1.976" y2="65.005"/><linearGradient id="New_Gradient_Swatch_2-9" x1="34.5" x2="34.5" xlink:href="#New_Gradient_Swatch_2" y1="-1.976" y2="65.005"/><linearGradient id="New_Gradient_Swatch_2-10" x1="29" x2="29" xlink:href="#New_Gradient_Swatch_2" y1="-1.976" y2="65.005"/><linearGradient id="New_Gradient_Swatch_2-16" x1="29.5" x2="29.5" xlink:href="#New_Gradient_Swatch_2" y1="-1.976" y2="65.005"/><linearGradient id="New_Gradient_Swatch_2-17" x1="45" x2="45" xlink:href="#New_Gradient_Swatch_2" y1="-1.976" y2="65.005"/><linearGradient id="New_Gradient_Swatch_2-18" x1="41" x2="41" xlink:href="#New_Gradient_Swatch_2" y1="-1.976" y2="65.005"/><linearGradient id="New_Gradient_Swatch_2-19" x1="37" x2="37" xlink:href="#New_Gradient_Swatch_2" y1="-1.976" y2="65.005"/><linearGradient id="New_Gradient_Swatch_2-20" x1="6" x2="6" xlink:href="#New_Gradient_Swatch_2" y1="-1.976" y2="65.005"/><path d="m3.154 50.633a1 1 0 0 0 .571.8l5.282 2.469.005-.011a.987.987 0 0 0 .419.1c.034 0 .068 0 .1-.005l41.769-4.312h.011l3.979-.412 4.973-.515a1 1 0 0 0 .892-1.1l-.618-5.967a1.007 1.007 0 0 0 -1.1-.893l-6.659.689-2.292.237-41.776 4.324a.974.974 0 0 0 -.486.209l-.011-.014-4.665 3.5a1 1 0 0 0 -.394.901zm50.022-7.185.5-.052.411 3.979-1.989.206-.41-3.981zm5.886 3.412-2.984.309-.411-3.978 2.984-.309zm-9.362-3.052.411 3.978-39.789 4.114-.411-3.978zm-41.7 5.084.253 2.454-2.171-1.016z" fill="url(#New_Gradient_Swatch_2)"/><path d="m61 9h-5v-1a4 4 0 0 0 -4-4h-39a4 4 0 0 0 -4 4v36h2v-30h37v26h2v-11h8a4 4 0 0 0 4-4v-15a1 1 0 0 0 -1-1zm-50 3v-4a2 2 0 0 1 2-2h35.556a3.959 3.959 0 0 0 -.556 2v4zm39-4a2 2 0 0 1 4 0v17a3.959 3.959 0 0 0 .556 2h-4.556zm10 17a2 2 0 0 1 -4 0v-14h4z" fill="url(#New_Gradient_Swatch_2-2)"/><path d="m13 8h2v2h-2z" fill="url(#New_Gradient_Swatch_2-3)"/><path d="m17 8h2v2h-2z" fill="url(#New_Gradient_Swatch_2-4)"/><path d="m21 8h2v2h-2z" fill="url(#New_Gradient_Swatch_2-5)"/><path d="m15 27h8a1 1 0 0 0 1-1v-8a1 1 0 0 0 -1-1h-8a1 1 0 0 0 -1 1v8a1 1 0 0 0 1 1zm1-8h6v6h-6z" fill="url(#New_Gradient_Swatch_2-6)"/><path d="m32 17h13v2h-13z" fill="url(#New_Gradient_Swatch_2-7)"/><path d="m26 21h19v2h-19z" fill="url(#New_Gradient_Swatch_2-2)"/><path d="m26 25h17v2h-17z" fill="url(#New_Gradient_Swatch_2-9)"/><path d="m28 17h2v2h-2z" fill="url(#New_Gradient_Swatch_2-10)"/><path d="m14 39a1 1 0 0 0 1 1h8a1 1 0 0 0 1-1v-8a1 1 0 0 0 -1-1h-8a1 1 0 0 0 -1 1zm2-7h6v6h-6z" fill="url(#New_Gradient_Swatch_2-6)"/><path d="m32 30h13v2h-13z" fill="url(#New_Gradient_Swatch_2-7)"/><path d="m26 34h19v2h-19z" fill="url(#New_Gradient_Swatch_2-2)"/><path d="m26 38h17v2h-17z" fill="url(#New_Gradient_Swatch_2-9)"/><path d="m28 30h2v2h-2z" fill="url(#New_Gradient_Swatch_2-10)"/><path d="m9 56v3a1 1 0 0 0 1 1h39a1 1 0 0 0 1-1v-7h-2v6h-37v-2z" fill="url(#New_Gradient_Swatch_2-16)"/><path d="m44 54h2v2h-2z" fill="url(#New_Gradient_Swatch_2-17)"/><path d="m40 54h2v2h-2z" fill="url(#New_Gradient_Swatch_2-18)"/><path d="m36 54h2v2h-2z" fill="url(#New_Gradient_Swatch_2-19)"/><g fill="url(#New_Gradient_Swatch_2-20)"><path d="m5 12h2v23h-2z"/><path d="m5 37h2v2h-2z"/></g></svg>